<svg width="38" height="50" viewBox="0 0 38 50" fill="none" xmlns="http://www.w3.org/2000/svg">
<path d="M18.2363 0.929714C19.6226 6.84967 21.352 10.3657 23.2705 13.1851L20.906 13.9846C19.5071 11.8488 18.2099 9.31018 17.0685 5.75918C15.0263 12.1312 12.4303 15.3213 9.70411 18.6656C7.72699 21.0907 5.67622 23.6053 3.75567 27.5807C3.34063 28.4356 3.00291 29.3218 2.77097 30.2459C2.54311 31.1492 2.4129 32.0855 2.4129 33.0657C2.4129 35.0672 2.77097 36.9145 3.48264 38.6113C4.92835 42.0443 8.05291 45.1033 11.4904 46.525C13.203 47.2331 15.0625 47.5911 17.073 47.5911C19.0908 47.5911 20.9585 47.2331 22.6752 46.525C24.3927 45.8134 25.9837 44.7388 27.4363 43.3069C27.9384 42.8105 28.397 42.297 28.8112 41.7672L31.3751 42.3275C30.7346 43.2707 29.9827 44.1687 29.1213 45.0203C27.4444 46.6683 25.6016 47.9126 23.5875 48.7471C21.5688 49.5813 19.396 50.0004 17.073 50.0004C14.7496 50.0004 12.5805 49.5813 10.5667 48.7471C8.56072 47.917 6.72154 46.6719 5.04553 45.0203C3.37318 43.3675 2.1118 41.5414 1.26911 39.5435C0.422767 37.5371 0 35.376 0 33.0653C0 31.8812 0.154214 30.7464 0.431312 29.6514C0.703933 28.5772 1.09862 27.5437 1.5869 26.5346C3.62993 22.311 5.77388 19.6824 7.83685 17.1478C10.9329 13.3474 13.8549 9.76672 15.8894 0.933376C16.0354 0.286409 16.6824 -0.11642 17.3294 0.0300635C17.7973 0.139926 18.135 0.497996 18.2363 0.929714ZM33.8327 17.3318C34.3764 17.7313 34.4638 18.4751 34.0276 18.9948C33.5898 19.5095 32.7911 19.6023 32.241 19.2035C30.143 17.6687 28.6887 18.6147 27.0005 19.7162C24.5115 21.3474 21.6527 23.2106 16.612 21.2164C15.9703 20.9625 15.6855 20.2696 15.9626 19.6678C16.2462 19.0656 16.9933 18.788 17.6337 19.0371C21.3878 20.5235 23.6208 19.0623 25.5695 17.7846C28.1 16.1444 30.2724 14.7235 33.8327 17.3318ZM37.4781 33.2223C38.0234 33.6219 38.11 34.3653 37.673 34.8853C37.236 35.4001 36.4373 35.4936 35.8872 35.0945C33.7884 33.554 32.3349 34.5053 30.6467 35.6072C28.1569 37.238 25.2997 39.1016 20.2574 37.1074C19.6161 36.8535 19.3313 36.1605 19.6088 35.5583C19.8916 34.9565 20.6387 34.679 21.2799 34.9281C25.0328 36.4145 27.2658 34.9533 29.2153 33.6756C31.7445 32.0293 33.9178 30.6084 37.4781 33.2223ZM35.9311 24.9705C36.4763 25.3708 36.5638 26.1142 36.126 26.6339C35.689 27.149 34.8911 27.2426 34.3393 26.8434C32.2475 25.3074 30.7875 26.2542 29.0997 27.3561C26.6107 28.9865 23.7527 30.8505 18.7104 28.8559C18.0691 28.6016 17.7843 27.9095 18.0614 27.3073C18.3446 26.7055 19.092 26.428 19.7329 26.6766C23.4857 28.1634 25.7196 26.7022 27.6682 25.4246C30.1987 23.7778 32.3699 22.3565 35.9311 24.9705Z" fill="black"/>
</svg>
