<svg width="60" height="40" viewBox="0 0 60 40" fill="none" xmlns="http://www.w3.org/2000/svg">
<path fill-rule="evenodd" clip-rule="evenodd" d="M12.4268 38.7061V39.292C12.4255 39.4522 12.3613 39.6054 12.248 39.7187C12.1347 39.832 11.9815 39.8962 11.8213 39.8975H8.82324C8.66306 39.8962 8.50979 39.832 8.39652 39.7187C8.28325 39.6054 8.21905 39.4522 8.21777 39.292V38.7012H2.41211C1.77557 38.6936 1.16717 38.4377 0.716584 37.988C0.265998 37.5383 0.00886703 36.9305 0 36.2939L0 2.41211C0.00760363 1.77474 0.264177 1.16562 0.714898 0.714898C1.16562 0.264177 1.77474 0.00760363 2.41211 0L57.5879 0C58.2253 0.00760363 58.8344 0.264177 59.2851 0.714898C59.7358 1.16562 59.9924 1.77474 60 2.41211V36.2939C59.9924 36.9313 59.7358 37.5404 59.2851 37.9912C58.8344 38.4419 58.2253 38.6984 57.5879 38.7061H52.4268V39.292C52.4255 39.4522 52.3613 39.6054 52.248 39.7187C52.1347 39.832 51.9815 39.8962 51.8213 39.8975H48.8281C48.6679 39.8962 48.5147 39.832 48.4014 39.7187C48.2881 39.6054 48.2239 39.4522 48.2227 39.292V38.7012H12.4268V38.7061ZM9.27734 21.2598C9.25298 21.3364 9.21376 21.4075 9.16192 21.4689C9.11009 21.5304 9.04665 21.5811 8.97524 21.618C8.90383 21.655 8.82584 21.6775 8.74572 21.6843C8.6656 21.6911 8.58493 21.6821 8.5083 21.6577C8.43167 21.6333 8.3606 21.5941 8.29913 21.5423C8.23766 21.4905 8.18701 21.427 8.15005 21.3556C8.1131 21.2842 8.09057 21.2062 8.08376 21.1261C8.07695 21.046 8.08599 20.9653 8.11035 20.8887C8.54795 19.6461 9.17731 18.4796 9.97559 17.4316C10.6113 16.5278 11.4467 15.7826 12.417 15.2539C12.5634 15.1855 12.7309 15.178 12.8828 15.2329C13.0347 15.2878 13.1587 15.4007 13.2275 15.5469C13.2622 15.6189 13.2823 15.6972 13.2866 15.777C13.2908 15.8569 13.2793 15.9368 13.2525 16.0122C13.2257 16.0876 13.1842 16.1569 13.1305 16.2161C13.0768 16.2754 13.0118 16.3234 12.9395 16.3574C12.1474 16.7995 11.4675 17.4176 10.9521 18.1641C10.2367 19.1028 9.67165 20.1472 9.27734 21.2598ZM6.25 12.0996H53.1738C53.4985 12.1009 53.8095 12.2304 54.039 12.46C54.2686 12.6896 54.3981 13.0005 54.3994 13.3252V31.9092C54.3994 32.2347 54.2704 32.5469 54.0407 32.7775C53.811 33.0081 53.4993 33.1384 53.1738 33.1396H6.25C5.92451 33.1384 5.61278 33.0081 5.38308 32.7775C5.15338 32.5469 5.02441 32.2347 5.02441 31.9092V13.3203C5.02441 13.1596 5.05615 13.0005 5.1178 12.852C5.17945 12.7036 5.2698 12.5688 5.38367 12.4554C5.49754 12.342 5.63269 12.2522 5.78136 12.1911C5.93002 12.1301 6.08928 12.099 6.25 12.0996ZM6.68457 13.7549V31.4697H52.7344V13.8525C52.7344 13.8232 52.5781 13.7549 52.5 13.7549H6.68457ZM3.2666 2.09473C2.95526 2.10107 2.65866 2.22857 2.43984 2.45013C2.22101 2.67169 2.0972 2.96985 2.09473 3.28125V35.4248C2.09472 35.7404 2.21941 36.0432 2.44165 36.2673C2.66389 36.4913 2.96567 36.6185 3.28125 36.6211C23.5645 36.6211 37.1973 36.6211 56.7188 36.6211C57.0326 36.6185 57.333 36.4927 57.5549 36.2707C57.7769 36.0488 57.9027 35.7485 57.9053 35.4346V3.28125C57.9027 2.96735 57.7769 2.66704 57.5549 2.44507C57.333 2.22311 57.0326 2.09728 56.7188 2.09473H3.2666Z" fill="black"/>
</svg>
