<svg width="60" height="45" viewBox="0 0 60 45" fill="none" xmlns="http://www.w3.org/2000/svg">
<path d="M27.29 1.09497C27.041 0.845947 27.041 0.440674 27.29 0.186768C27.5391 -0.0622559 27.9443 -0.0622559 28.1982 0.186768C29.541 1.52954 29.0283 2.48169 28.4375 3.59009C28.0176 4.37622 27.5342 5.27466 28.3008 6.60278C28.4766 6.9104 28.374 7.30103 28.0664 7.47681C27.7588 7.65259 27.3682 7.55005 27.1924 7.24243C26.0693 5.29907 26.7334 4.06372 27.3096 2.98462C27.6562 2.33521 27.9639 1.7688 27.29 1.09497ZM2.6416 26.9153H8.13965C8.13477 26.2268 8.11523 25.6995 8.10547 25.2454C8.05664 23.5168 8.02734 22.6526 8.58887 22.0227C9.19434 21.344 10.0098 21.3733 11.6504 21.427C12.1826 21.4465 12.832 21.4661 13.7598 21.4661C14.2578 21.4661 14.6582 21.8665 14.6582 22.3645C14.6582 22.8625 14.2578 23.2629 13.7598 23.2629C12.9834 23.2629 12.2217 23.2385 11.5918 23.2141C10.5127 23.1751 9.97559 23.1604 9.92676 23.2141C9.83887 23.3118 9.8584 23.9417 9.89258 25.1917C9.90723 25.6995 9.92676 26.2903 9.93164 26.9104H20.1416V23.3557C20.1416 22.9749 20.542 22.6624 21.04 22.6624C21.5381 22.6624 21.9385 22.97 21.9385 23.3557V26.9104H32.1484C32.1582 26.2903 32.1729 25.7043 32.1875 25.1917C32.2266 23.9417 32.2412 23.3118 32.1533 23.2141C32.1045 23.1604 31.5674 23.1799 30.4883 23.2141C29.8633 23.2336 29.0967 23.2629 28.3203 23.2629C27.8223 23.2629 27.4219 22.8625 27.4219 22.3645C27.4219 21.8665 27.8223 21.4661 28.3203 21.4661C29.2529 21.4661 29.8975 21.4417 30.4297 21.427C32.0703 21.3684 32.8857 21.344 33.4912 22.0227C34.0479 22.6526 34.0234 23.5168 33.9746 25.2454C33.96 25.6995 33.9453 26.2268 33.9404 26.9153H46.8164C47.5439 26.9153 48.2031 27.2131 48.6816 27.6917C48.7012 27.7112 48.7207 27.7307 48.7354 27.7502C49.1797 28.2239 49.4531 28.8586 49.4531 29.5569V32.0032C51.2744 32.0178 52.749 33.5022 52.749 35.3284C52.749 37.1545 51.2744 38.6389 49.4531 38.6536V40.8118C49.4531 41.5344 49.1553 42.1936 48.6768 42.6721C48.1982 43.1506 47.5391 43.4436 46.8164 43.4436H42.5635V44.3811C42.5635 44.596 42.1631 44.7668 41.665 44.7668C41.167 44.7668 40.7666 44.596 40.7666 44.3811V43.4436H7.24609V44.3811C7.24609 44.596 6.8457 44.7668 6.34766 44.7668C5.84961 44.7668 5.44922 44.596 5.44922 44.3811V43.4436H2.6416C1.91895 43.4436 1.25977 43.1458 0.776367 42.6672C0.297852 42.1936 0 41.5344 0 40.8069V29.5569C0 28.8342 0.297852 28.1751 0.776367 27.6965C1.25488 27.2131 1.91406 26.9153 2.6416 26.9153ZM46.8213 28.7122H2.6416C2.41211 28.7122 2.19727 28.8098 2.0459 28.9612C1.89453 29.1126 1.79688 29.3274 1.79688 29.5569V40.8069C1.79688 41.0364 1.89453 41.2512 2.0459 41.4026C2.19727 41.554 2.40723 41.6467 2.6416 41.6467H46.8262C47.0605 41.6467 47.2705 41.554 47.4219 41.4026L47.4268 41.3977C47.5781 41.2463 47.6709 41.0364 47.6709 40.802V29.5569C47.6709 29.342 47.5879 29.1418 47.4561 28.9905C47.4463 28.9807 47.4316 28.9709 47.4219 28.9612C47.2656 28.8098 47.0557 28.7122 46.8213 28.7122ZM57.9492 11.3391H47.7588C46.9531 11.3391 46.25 11.8127 45.918 12.4915H37.8174L38.0859 11.0657C38.1592 10.6653 37.8955 10.2795 37.5 10.2063C37.4561 10.1965 37.4072 10.1917 37.3633 10.1917H6.58691C6.18164 10.1917 5.84961 10.5237 5.84961 10.929C5.84961 11.012 5.86426 11.095 5.88867 11.1682L6.99219 15.3528C7.31445 16.5637 7.85156 17.7112 8.66211 18.5217C9.39941 19.259 10.3369 19.718 11.5137 19.718H32.749C33.9502 19.718 34.9463 19.2444 35.708 18.4827C36.5186 17.6721 37.0508 16.5344 37.2852 15.304L37.4756 14.2883H45.918C46.2549 14.967 46.9531 15.4407 47.7588 15.4407H57.9492C59.0771 15.4407 60 14.5178 60 13.3899C60 12.262 59.0771 11.3391 57.9492 11.3391ZM35.8398 15.0305C35.6641 15.9778 35.2637 16.8372 34.668 17.4377C34.1699 17.9358 33.5303 18.2434 32.7539 18.2434H11.5137C10.7715 18.2434 10.1709 17.9504 9.70215 17.4817C9.0918 16.8713 8.67188 15.9631 8.41309 14.9817L7.53906 11.6711H36.4746C36.2598 12.7942 36.0547 13.9026 35.8398 15.0305ZM14.7217 1.09497C14.4727 0.845947 14.4727 0.440674 14.7217 0.186768C14.9707 -0.0622559 15.376 -0.0622559 15.6299 0.186768C16.9727 1.52954 16.46 2.48169 15.8643 3.59009C15.4443 4.37622 14.9609 5.27466 15.7275 6.60278C15.9033 6.9104 15.8008 7.30103 15.4932 7.47681C15.1855 7.65259 14.7949 7.55005 14.6191 7.24243C13.4961 5.29907 14.1602 4.06372 14.7363 2.98462C15.0879 2.33521 15.3955 1.7688 14.7217 1.09497ZM18.9111 1.09497C18.6621 0.845947 18.6621 0.440674 18.9111 0.186768C19.1602 -0.0622559 19.5654 -0.0622559 19.8193 0.186768C21.1621 1.52954 20.6494 2.48169 20.0586 3.59009C19.6387 4.37622 19.1553 5.27954 19.9219 6.60767C20.0977 6.91528 19.9902 7.30591 19.6875 7.48169C19.3799 7.65747 18.9893 7.55005 18.8135 7.24731C17.6904 5.30396 18.3545 4.07349 18.9307 2.99439C19.2773 2.33521 19.585 1.7688 18.9111 1.09497ZM23.1006 1.09497C22.8516 0.845947 22.8516 0.440674 23.1006 0.186768C23.3496 -0.0622559 23.7549 -0.0622559 24.0088 0.186768C25.3516 1.52954 24.8389 2.48657 24.248 3.59009C23.8281 4.37622 23.3447 5.27954 24.1113 6.60767C24.2871 6.91528 24.1797 7.30591 23.877 7.48169C23.5693 7.65747 23.1787 7.55005 23.0029 7.24731C21.8799 5.30396 22.5439 4.07349 23.1201 2.99439C23.4668 2.33521 23.7744 1.7688 23.1006 1.09497Z" fill="black"/>
</svg>
