<svg width="44" height="55" viewBox="0 0 44 55" fill="none" xmlns="http://www.w3.org/2000/svg">
<path d="M21.7887 18.1812C25.7141 18.1812 29.2635 19.7701 31.8372 22.3438C34.4063 24.9129 35.9998 28.4668 35.9998 32.3922C35.9998 36.3175 34.4108 39.8669 31.8372 42.4406C29.268 45.0098 25.7141 46.6032 21.7887 46.6032C17.8634 46.6032 14.314 45.0142 11.7403 42.4406C9.17114 39.8714 7.57772 36.3175 7.57772 32.3922C7.57772 28.4668 9.16667 24.9174 11.7403 22.3438C14.3095 19.7701 17.8634 18.1812 21.7887 18.1812ZM10.0081 4.38639C11.7135 4.38639 13.092 5.76945 13.092 7.4703C13.092 9.17114 11.709 10.5542 10.0081 10.5542C8.30729 10.5542 6.92424 9.17114 6.92424 7.4703C6.92424 5.76945 8.30729 4.38639 10.0081 4.38639ZM26.5511 6.57959C27.0972 6.57959 27.5448 7.02271 27.5448 7.57324C27.5448 8.1193 27.1016 8.56689 26.5511 8.56689C26.005 8.56689 25.5575 8.12378 25.5575 7.57324C25.5619 7.02271 26.005 6.57959 26.5511 6.57959ZM30.8525 6.57959C31.3985 6.57959 31.8461 7.02271 31.8461 7.57324C31.8461 8.1193 31.403 8.56689 30.8525 8.56689C30.3064 8.56689 29.8588 8.12378 29.8588 7.57324C29.8588 7.02271 30.3019 6.57959 30.8525 6.57959ZM35.1493 6.57959C35.6954 6.57959 36.143 7.02271 36.143 7.57324C36.143 8.1193 35.6999 8.56689 35.1493 8.56689C34.6033 8.56689 34.1557 8.12378 34.1557 7.57324C34.1557 7.02271 34.6033 6.57959 35.1493 6.57959ZM1.9873 12.7205H41.2992V2.71688C41.2992 2.51546 41.2187 2.33643 41.0844 2.20215C40.9501 2.06787 40.7711 1.9873 40.5697 1.9873H2.71688C2.51546 1.9873 2.33643 2.06787 2.20215 2.20215C2.06787 2.33643 1.9873 2.51546 1.9873 2.71688V12.7205ZM43.2865 13.1905C43.3805 13.3427 43.4342 13.5217 43.4342 13.7142C43.4342 13.9067 43.3805 14.0857 43.2865 14.2379V52.2876C43.2865 53.0351 42.9822 53.7154 42.4898 54.2078C41.9975 54.7001 41.3171 55.0045 40.5697 55.0045H2.71688C1.9694 55.0045 1.28906 54.7001 0.796712 54.2078C0.304362 53.7109 0 53.0306 0 52.2831V2.71688C0 1.9694 0.304362 1.28906 0.796712 0.796712C1.28906 0.304362 1.9694 0 2.71688 0H40.5697C41.3171 0 41.9975 0.304362 42.4898 0.796712C42.9822 1.28906 43.2865 1.9694 43.2865 2.71688V13.1905ZM41.2992 14.7078H1.9873V52.2831C1.9873 52.4845 2.06787 52.6636 2.20215 52.7979C2.33643 52.9321 2.51546 53.0127 2.71688 53.0127H40.5697C40.7711 53.0127 40.9501 52.9321 41.0844 52.7979C41.2187 52.6636 41.2992 52.4845 41.2992 52.2831V14.7078ZM10.5318 33.256C10.0932 33.0367 9.91862 32.5085 10.1335 32.0744C10.3528 31.6402 10.8809 31.4612 11.3151 31.676C11.5076 31.77 11.794 31.9222 12.085 32.0744C13.741 32.9472 15.8179 34.0348 17.5635 33.1083C23.3777 30.0065 24.0759 30.8435 25.2083 32.2042C25.6246 32.701 26.1348 33.3142 27.6701 33.5022C28.1087 33.5559 28.6727 33.444 29.3933 33.171C30.2079 32.8621 31.1792 32.3698 32.334 31.7029C32.7547 31.4612 33.2918 31.6044 33.5335 32.0252C33.7752 32.4459 33.632 32.983 33.2113 33.2247C31.9625 33.9453 30.9106 34.4779 30.0155 34.8181C29.0218 35.1941 28.1848 35.3418 27.4597 35.2523C25.2397 34.9792 24.4788 34.0662 23.8611 33.3276C23.2971 32.6518 22.948 32.231 18.4005 34.6615C15.8313 36.0311 13.2979 34.6973 11.2748 33.6365C11.0376 33.5156 10.8183 33.3993 10.5318 33.256ZM30.5839 23.5881C28.3325 21.3367 25.2218 19.9447 21.7887 19.9447C18.3512 19.9447 15.245 21.3367 12.9936 23.5881C10.7422 25.8394 9.35018 28.9502 9.35018 32.3832C9.35018 35.8207 10.7422 38.927 12.9936 41.1784C15.245 43.4298 18.3557 44.8218 21.7887 44.8218C25.2262 44.8218 28.3325 43.4298 30.5839 41.1784C32.8353 38.927 34.2273 35.8162 34.2273 32.3832C34.2273 28.9502 32.8353 25.8394 30.5839 23.5881Z" fill="black"/>
</svg>
