<svg width="35" height="30" viewBox="0 0 35 30" fill="none" xmlns="http://www.w3.org/2000/svg">
<path fill-rule="evenodd" clip-rule="evenodd" d="M1.13602 12.6035H8.86775C9.49228 12.6035 10.0038 13.115 10.0038 13.7423V28.8638C10.0038 29.4884 9.49228 30.0027 8.86775 30.0027H1.13602C0.511492 30.0027 0 29.4912 0 28.8638V13.7423C0 13.115 0.511492 12.6035 1.13602 12.6035ZM17.8203 1.26021C18.4194 -1.77765 23.393 1.02001 23.7208 5.91733C23.8197 7.41507 23.6643 9.15867 23.2969 11.1057H30.4041C33.36 11.2216 35.9401 13.3382 34.1174 16.8141C34.5328 18.3288 34.5949 20.1063 33.4674 20.8071C33.6087 23.1978 32.9474 24.6786 31.7097 25.8486C31.6277 27.0439 31.3734 28.1065 30.7969 28.9232C29.8417 30.2711 29.0674 29.949 27.5641 29.949H15.5624C13.6605 29.949 12.6234 29.4262 11.38 27.8663V14.4997C14.9576 13.5332 16.8595 8.6387 17.8203 5.42562V1.26021Z" fill="white"/>
</svg>
