<svg width="30" height="23" viewBox="0 0 30 23" fill="none" xmlns="http://www.w3.org/2000/svg">
<path d="M10.8667 2H26.0667C26.4026 2 26.7248 2.13345 26.9623 2.371C27.1999 2.60854 27.3333 2.93073 27.3333 3.26667V19.7333C27.3333 20.0693 27.1999 20.3915 26.9623 20.629C26.7248 20.8665 26.4026 21 26.0667 21H10.8667M2 3.26667C2 2.93073 2.13345 2.60854 2.371 2.371C2.60854 2.13345 2.93073 2 3.26667 2H10.8667V21H3.26667C2.93073 21 2.60854 20.8665 2.371 20.629C2.13345 20.3915 2 20.0693 2 19.7333V3.26667Z" stroke="white" stroke-width="4"/>
<path d="M6.43333 6.43335V8.96669M22.9 5.80002L15.3 16.5667" stroke="white" stroke-width="4" stroke-linecap="round" stroke-linejoin="round"/>
</svg>
