<svg width="35" height="30" viewBox="0 0 35 30" fill="none" xmlns="http://www.w3.org/2000/svg">
<path fill-rule="evenodd" clip-rule="evenodd" d="M1.13885 17.3964H8.87057C9.4951 17.3964 10.0066 16.8849 10.0066 16.2604V1.13885C10.0066 0.511492 9.4951 0 8.87057 0H1.13885C0.511492 0 0 0.511492 0 1.13885V16.2604C0 16.8849 0.511492 17.3964 1.13885 17.3964ZM17.8203 28.7396C18.4194 31.7775 23.393 28.9798 23.7208 24.0825C23.8197 22.5848 23.6643 20.8412 23.2969 18.8941H30.4041C33.36 18.7783 35.9401 16.6616 34.1174 13.1858C34.5328 11.6711 34.5949 9.89356 33.4674 9.19273C33.6087 6.802 32.9474 5.32121 31.7097 4.15128C31.6277 2.95592 31.3734 1.89337 30.7969 1.07668C29.8417 -0.271289 29.0674 0.0508666 27.5641 0.0508666H15.5624C13.6605 0.0508666 12.6234 0.573662 11.38 2.13357V15.503C14.9576 16.4695 16.8595 21.364 17.8203 24.5771V28.7396Z" fill="white"/>
</svg>
